# xmcd
#
# Track frame offsets:
#	150
#	14485
#	72840
#	117552
#	173690
#	195317
#	212692
#	229565
#	261647
#	283495
#
# Disc length: 4029 seconds
#
# Revision: 1
# Processed by: cddbd v1.5.1PL0 Copyright (c) Steve Scherf et al.
# Submitted via: CDex 1.50Beta5
#
DISCID=960fbb0a
DTITLE=UNDER17 - マウス ドラマ&ヴォーカルアルバム 花鳥風月 マウスでChu!
DYEAR=2003
DGENRE=
TTITLE0=UNDER17/Anonymous…MOUSE!!
TTITLE1=山口勝平/第1話〜葉月の”ちょーコスプレ術〜
TTITLE2=山口勝平/第2話〜弥生の妄想劇場…はしたない〜」
TTITLE3=山口勝平/第3話〜メイとスゥイートルームにて〜
TTITLE4=山口勝平/ギャグシリーズ1「おとうととよばないで!」
TTITLE5=山口勝平/ギャグシリーズ2「弥生の妄想劇場…はしたない
TTITLE6=山口勝平/ギャグシリーズ3「奥様しこたま劇場」
TTITLE7=山口勝平/ギャグシリーズ4「第1回ここが最高!ご主人様大会」
TTITLE8=山口勝平/ギャグシリーズ5「一日一膳、やっぱり三膳」
TTITLE9=メイ・葉月・弥生(井上喜久子・中原麻衣・福井裕佳梨)/Sexy Exerise〜マウスガールズのテーマ〜
EXTD=
EXTT0=
EXTT1=
EXTT2=
EXTT3=
EXTT4=
EXTT5=
EXTT6=
EXTT7=
EXTT8=
EXTT9=
PLAYORDER=
